<svg xmlns="http://www.w3.org/2000/svg" width="1024" height="1024" viewBox="0 0 69 69" shape-rendering="crispEdges"><path fill="#ffffff" d="M0 0h69v69H0z"/><path stroke="#10263d" d="M4 4.5h7m6 0h1m1 0h1m2 0h1m1 0h1m1 0h2m1 0h5m2 0h3m3 0h1m3 0h6m1 0h1m1 0h2m1 0h7M4 5.5h1m5 0h1m1 0h1m1 0h2m3 0h1m2 0h1m3 0h1m3 0h2m2 0h1m1 0h1m3 0h1m1 0h1m1 0h1m1 0h2m2 0h1m1 0h2m1 0h2m1 0h1m5 0h1M4 6.5h1m1 0h3m1 0h1m1 0h1m3 0h3m2 0h1m1 0h1m2 0h2m1 0h2m2 0h2m1 0h1m1 0h1m2 0h1m1 0h1m7 0h6m1 0h1m1 0h3m1 0h1M4 7.5h1m1 0h3m1 0h1m1 0h1m1 0h3m1 0h1m1 0h1m3 0h1m3 0h4m2 0h1m1 0h1m1 0h4m4 0h2m3 0h4m1 0h1m1 0h1m1 0h3m1 0h1M4 8.5h1m1 0h3m1 0h1m1 0h5m4 0h1m2 0h1m2 0h2m1 0h1m1 0h8m1 0h1m2 0h1m1 0h1m1 0h1m1 0h2m2 0h2m2 0h1m1 0h3m1 0h1M4 9.5h1m5 0h1m1 0h5m1 0h3m2 0h1m2 0h1m2 0h1m1 0h2m3 0h1m2 0h1m1 0h3m2 0h2m2 0h3m1 0h1m3 0h1m5 0h1M4 10.5h7m1 0h1m1 0h1m1 0h1m1 0h1m1 0h1m1 0h1m1 0h1m1 0h1m1 0h1m1 0h1m1 0h1m1 0h1m1 0h1m1 0h1m1 0h1m1 0h1m1 0h1m1 0h1m1 0h1m1 0h1m1 0h1m1 0h1m1 0h1m1 0h7M15 11.5h3m1 0h3m6 0h1m2 0h2m3 0h1m1 0h5m1 0h1m3 0h3m1 0h2m2 0h1M6 12.5h1m2 0h4m2 0h2m1 0h1m1 0h1m3 0h4m1 0h2m1 0h6m2 0h1m1 0h1m3 0h1m1 0h1m3 0h1m1 0h2m1 0h1m1 0h5M4 13.5h1m1 0h3m3 0h1m1 0h2m1 0h1m1 0h3m2 0h2m1 0h3m1 0h1m3 0h1m2 0h1m1 0h3m6 0h1m1 0h3m1 0h1m1 0h1m1 0h3m1 0h2M6 14.5h1m3 0h1m1 0h1m1 0h1m1 0h1m3 0h1m3 0h1m1 0h1m1 0h1m2 0h4m2 0h1m5 0h2m1 0h1m1 0h2m1 0h2m3 0h1m5 0h1m1 0h1M7 15.5h3m3 0h3m1 0h3m1 0h1m1 0h1m1 0h2m2 0h4m1 0h1m1 0h5m1 0h1m1 0h1m2 0h2m3 0h1m1 0h1m2 0h2m1 0h2m2 0h1M4 16.5h7m2 0h1m1 0h2m2 0h1m1 0h1m2 0h1m1 0h3m2 0h2m1 0h1m1 0h2m3 0h2m1 0h1m3 0h1m3 0h1m1 0h1m5 0h1M7 17.5h3m1 0h3m1 0h2m3 0h2m1 0h2m3 0h2m5 0h1m1 0h1m1 0h4m1 0h2m1 0h3m1 0h3m1 0h1m1 0h1m1 0h6M8 18.5h3m3 0h1m1 0h1m2 0h1m6 0h2m1 0h2m1 0h2m6 0h3m1 0h1m4 0h1m2 0h2m2 0h2m6 0h1M4 19.5h1m3 0h1m2 0h1m1 0h3m4 0h2m1 0h2m3 0h1m1 0h2m1 0h1m1 0h1m1 0h4m1 0h2m3 0h9m1 0h2m1 0h2M5 20.5h1m4 0h1m1 0h1m1 0h1m1 0h1m4 0h1m1 0h1m1 0h1m2 0h1m5 0h2m1 0h1m3 0h1m4 0h1m1 0h1m1 0h1m1 0h1m1 0h2m4 0h2m1 0h2M4 21.5h5m2 0h1m1 0h1m1 0h2m1 0h1m1 0h1m6 0h2m1 0h5m1 0h4m1 0h1m1 0h3m1 0h1m1 0h1m1 0h1m3 0h1M4 22.5h1m2 0h1m1 0h2m3 0h1m4 0h2m3 0h1m3 0h2m4 0h2m1 0h1m2 0h2m1 0h2m3 0h1m2 0h2m2 0h1m3 0h1m3 0h2M4 23.5h1m1 0h1m2 0h1m1 0h2m1 0h3m2 0h1m1 0h9m3 0h1m3 0h3m1 0h1m3 0h2m1 0h3m1 0h1m2 0h2m2 0h3m1 0h2M4 24.5h1m1 0h2m1 0h2m1 0h1m1 0h3m1 0h1m3 0h3m2 0h2m2 0h2m2 0h2m1 0h1m1 0h1m1 0h1m2 0h1m2 0h1m2 0h2m1 0h1m2 0h2m1 0h2m2 0h1M5 25.5h2m2 0h1m1 0h1m1 0h2m1 0h2m1 0h1m2 0h1m1 0h2m1 0h7m2 0h2m2 0h1m1 0h1m1 0h2m1 0h1m1 0h1m3 0h1m1 0h1m1 0h1m6 0h1M7 26.5h6m5 0h2m3 0h4m3 0h2m1 0h1m3 0h1m1 0h3m2 0h2m6 0h2m1 0h2m2 0h1m1 0h1m2 0h1M5 27.5h1m1 0h3m1 0h2m3 0h5m2 0h5m1 0h4m6 0h1m1 0h3m1 0h2m1 0h2m1 0h1m2 0h2m2 0h2m1 0h1m1 0h2M4 28.5h1m2 0h2m1 0h1m2 0h3m4 0h1m1 0h4m1 0h1m3 0h1m1 0h2m1 0h1m1 0h1m3 0h1m1 0h1m1 0h4m2 0h1m1 0h1m1 0h1m1 0h3M4 29.5h3m1 0h1m2 0h1m1 0h4m1 0h1m1 0h3m2 0h1m2 0h2m4 0h2m3 0h4m1 0h2m1 0h3m1 0h1m1 0h1m3 0h1m1 0h1m1 0h1m2 0h1M7 30.5h1m2 0h2m2 0h4m2 0h10m1 0h3m1 0h1m1 0h1m2 0h1m3 0h2m1 0h2m7 0h1m2 0h2m1 0h1m1 0h1M5 31.5h4m2 0h5m1 0h2m3 0h2m1 0h2m4 0h1m1 0h1m2 0h3m1 0h1m1 0h2m4 0h1m3 0h3m2 0h2m1 0h1m2 0h2M4 32.5h1m1 0h7m2 0h1m2 0h2m1 0h2m1 0h3m1 0h1m2 0h7m1 0h3m1 0h1m1 0h2m1 0h2m1 0h3m1 0h6M4 33.5h2m2 0h1m3 0h1m1 0h1m9 0h1m2 0h2m1 0h3m3 0h2m1 0h2m2 0h3m1 0h1m3 0h6m3 0h2m2 0h1M4 34.5h1m2 0h2m1 0h1m1 0h1m1 0h3m1 0h2m2 0h1m4 0h2m3 0h1m1 0h1m1 0h1m1 0h2m2 0h3m4 0h1m2 0h3m1 0h1m1 0h1m1 0h1m1 0h1m1 0h1M4 35.5h1m1 0h1m1 0h1m3 0h3m5 0h1m3 0h1m4 0h2m1 0h1m3 0h1m6 0h1m1 0h1m1 0h4m1 0h1m3 0h1m3 0h2m1 0h1M4 36.5h2m1 0h7m1 0h2m1 0h1m2 0h1m1 0h2m1 0h12m1 0h2m2 0h2m1 0h1m1 0h2m2 0h3m1 0h6M5 37.5h1m1 0h1m1 0h1m1 0h2m3 0h1m3 0h1m3 0h1m4 0h1m1 0h3m3 0h1m2 0h1m2 0h1m1 0h1m1 0h2m2 0h1m1 0h1m2 0h2m1 0h1m4 0h1M4 38.5h1m1 0h1m3 0h1m3 0h1m2 0h2m1 0h1m4 0h2m1 0h1m2 0h1m1 0h1m3 0h1m2 0h3m13 0h1m1 0h1m5 0h1M6 39.5h1m1 0h2m2 0h1m2 0h1m1 0h1m1 0h1m2 0h2m3 0h1m3 0h3m1 0h1m1 0h1m1 0h3m1 0h1m1 0h2m3 0h1m1 0h2m1 0h7m1 0h2M5 40.5h1m4 0h1m1 0h1m2 0h1m1 0h1m3 0h1m1 0h1m1 0h1m1 0h1m1 0h1m4 0h1m4 0h6m1 0h1m3 0h1m1 0h1m1 0h3m2 0h1m1 0h1m1 0h2M4 41.5h1m6 0h1m2 0h1m2 0h1m1 0h5m2 0h2m3 0h3m2 0h2m3 0h1m1 0h1m1 0h1m2 0h2m1 0h1m1 0h1m3 0h1m1 0h1m3 0h2M4 42.5h2m1 0h4m2 0h1m1 0h1m1 0h1m1 0h1m1 0h1m2 0h1m1 0h4m2 0h1m2 0h1m1 0h4m2 0h2m1 0h1m2 0h1m1 0h1m1 0h1m1 0h2m1 0h1m1 0h1m3 0h1M4 43.5h3m1 0h1m2 0h1m1 0h2m1 0h2m2 0h3m1 0h7m1 0h1m1 0h3m1 0h5m1 0h2m2 0h1m3 0h2m1 0h2m1 0h1m2 0h1m1 0h2M6 44.5h2m2 0h1m1 0h4m1 0h2m3 0h4m1 0h2m1 0h2m2 0h1m1 0h1m2 0h1m1 0h2m1 0h3m1 0h1m1 0h1m1 0h4m3 0h1m1 0h1M5 45.5h1m1 0h2m2 0h1m2 0h4m1 0h1m1 0h1m2 0h7m5 0h1m1 0h1m5 0h2m1 0h2m2 0h3m2 0h1m1 0h2m1 0h4M8 46.5h1m1 0h1m2 0h6m4 0h5m2 0h1m1 0h2m1 0h1m1 0h2m1 0h3m2 0h1m4 0h4m1 0h2m2 0h3m2 0h1M8 47.5h2m1 0h2m2 0h1m4 0h4m1 0h1m2 0h3m1 0h3m1 0h2m1 0h2m2 0h1m3 0h6m2 0h2m2 0h1m1 0h4M5 48.5h4m1 0h1m1 0h1m1 0h3m4 0h1m4 0h2m1 0h1m3 0h2m1 0h1m2 0h3m2 0h1m1 0h1m1 0h1m2 0h3m1 0h2m1 0h1m2 0h4M5 49.5h5m4 0h8m1 0h2m1 0h2m1 0h1m2 0h1m2 0h1m1 0h1m2 0h1m1 0h1m1 0h2m1 0h1m3 0h2m2 0h1m3 0h1m1 0h2m1 0h1M5 50.5h1m1 0h1m1 0h4m1 0h2m2 0h1m3 0h2m1 0h5m1 0h1m1 0h2m2 0h1m1 0h2m2 0h3m3 0h1m1 0h3m1 0h1m2 0h1m1 0h1m1 0h1m1 0h1M4 51.5h6m2 0h2m1 0h2m1 0h1m4 0h2m2 0h1m1 0h2m1 0h1m4 0h5m1 0h1m2 0h3m1 0h2m1 0h9m1 0h2M6 52.5h3m1 0h5m2 0h4m1 0h1m2 0h1m5 0h2m1 0h1m3 0h2m2 0h1m1 0h1m1 0h1m1 0h1m1 0h4m1 0h1m1 0h1m1 0h1m1 0h1m1 0h2M8 53.5h1m4 0h3m6 0h3m2 0h1m4 0h4m4 0h2m1 0h1m1 0h1m2 0h2m1 0h1m1 0h1m1 0h3m6 0h1M6 54.5h5m1 0h2m4 0h2m1 0h2m2 0h1m4 0h2m1 0h2m4 0h1m2 0h1m2 0h1m2 0h2m1 0h3m2 0h1m1 0h3m3 0h1M4 55.5h3m1 0h1m2 0h1m2 0h1m1 0h1m1 0h2m3 0h3m1 0h1m1 0h3m3 0h2m3 0h1m1 0h1m1 0h10m1 0h2m1 0h2m1 0h1M4 56.5h4m2 0h1m1 0h1m1 0h1m1 0h1m1 0h1m1 0h5m1 0h1m2 0h8m1 0h1m2 0h1m2 0h2m2 0h2m2 0h10m2 0h1M12 57.5h2m1 0h2m1 0h4m2 0h1m5 0h1m1 0h1m3 0h1m1 0h2m2 0h6m1 0h1m1 0h3m2 0h1m3 0h1m3 0h1M4 58.5h7m1 0h4m4 0h1m2 0h1m2 0h3m1 0h3m1 0h1m1 0h1m3 0h1m4 0h2m1 0h1m2 0h3m2 0h1m1 0h1m1 0h1m3 0h1M4 59.5h1m5 0h1m1 0h1m3 0h1m3 0h2m6 0h2m1 0h2m3 0h1m1 0h2m1 0h1m2 0h1m1 0h1m1 0h3m1 0h5m3 0h2m1 0h1M4 60.5h1m1 0h3m1 0h1m2 0h1m3 0h3m2 0h1m3 0h1m1 0h2m1 0h6m1 0h1m2 0h2m1 0h1m1 0h1m1 0h1m3 0h2m2 0h6m2 0h1M4 61.5h1m1 0h3m1 0h1m3 0h2m5 0h2m2 0h1m2 0h1m2 0h2m1 0h1m1 0h2m2 0h3m1 0h2m1 0h3m1 0h1m1 0h1m2 0h3m1 0h3M4 62.5h1m1 0h3m1 0h1m1 0h2m2 0h1m1 0h2m2 0h2m3 0h1m4 0h1m3 0h2m2 0h1m1 0h3m2 0h3m1 0h1m4 0h3m1 0h1m1 0h3M4 63.5h1m5 0h1m2 0h3m1 0h1m1 0h1m5 0h3m6 0h1m6 0h2m1 0h1m2 0h2m2 0h4m2 0h1m1 0h1M4 64.5h7m3 0h1m1 0h1m3 0h1m1 0h3m1 0h2m2 0h1m5 0h1m2 0h2m1 0h1m1 0h3m1 0h1m3 0h1m1 0h1m1 0h1m2 0h1m1 0h1m2 0h1"/></svg>
